<svg id="svg" version="1.1" xmlns="http://www.w3.org/2000/svg" xmlns:xlink="http://www.w3.org/1999/xlink" width="400" height="400" viewBox="0, 0, 400,400"><g id="svgg"><path id="path0" d="M191.211 62.160 C 149.489 66.139,108.132 111.328,101.775 159.883 C 94.535 215.190,143.493 234.040,192.215 194.705 C 194.104 193.179,195.393 192.378,195.481 192.674 C 195.561 192.944,195.850 194.043,196.122 195.117 C 203.691 224.952,242.554 228.523,273.633 202.241 C 291.911 186.783,304.781 164.453,295.413 164.453 C 293.855 164.453,294.232 164.104,283.475 175.507 C 259.996 200.397,231.721 208.405,224.284 192.271 C 222.770 188.986,221.971 183.181,222.505 179.341 L 222.852 176.846 227.539 175.906 C 267.569 167.871,300.759 125.107,280.988 107.039 C 264.752 92.199,229.521 109.911,208.614 143.423 C 203.283 151.969,197.851 164.928,197.041 171.034 C 196.698 173.622,193.373 176.313,182.227 183.023 C 155.179 199.305,136.136 196.874,132.616 176.689 C 125.948 138.448,164.929 76.665,196.094 76.082 C 207.783 75.863,207.513 95.528,195.638 109.291 C 192.321 113.135,198.071 119.153,204.610 118.680 C 213.122 118.064,220.326 109.314,224.098 95.011 C 229.854 73.189,216.407 59.757,191.211 62.160 M267.876 117.444 C 272.384 120.780,268.298 133.464,259.513 143.409 C 251.872 152.059,239.176 160.816,228.191 165.014 C 224.653 166.366,224.746 166.523,226.331 161.884 C 235.558 134.896,258.418 110.442,267.876 117.444 M101.367 245.356 C 89.643 247.008,82.561 258.703,86.121 270.533 C 88.760 279.303,100.851 283.942,111.005 280.080 C 114.773 278.646,115.048 278.267,114.539 275.197 C 113.992 271.895,114.286 272.022,111.033 273.691 C 101.643 278.509,91.013 271.932,92.344 262.129 C 93.755 251.737,102.553 248.022,112.962 253.425 C 114.118 254.025,115.034 248.227,113.909 247.430 C 111.642 245.825,105.385 244.790,101.367 245.356 M120.391 262.693 C 120.526 282.357,120.188 280.859,124.489 280.859 L 126.953 280.859 126.953 274.023 L 126.953 267.188 129.672 267.188 L 132.392 267.188 132.835 268.848 C 135.194 277.682,140.911 282.546,146.294 280.297 L 147.640 279.734 145.340 277.434 C 143.550 275.643,142.562 274.150,140.887 270.701 L 138.736 266.269 140.402 265.212 C 145.639 261.891,146.519 253.610,142.104 249.195 C 139.271 246.362,137.479 245.914,128.399 245.766 L 120.274 245.634 120.391 262.693 M152.344 263.281 L 152.344 280.859 163.043 280.859 C 175.577 280.859,175.278 280.945,175.659 277.246 L 175.891 275.000 167.437 275.000 L 158.984 275.000 158.984 270.117 L 158.984 265.234 165.430 265.234 L 171.875 265.234 171.875 263.313 C 171.875 260.007,172.190 260.156,165.193 260.156 L 158.984 260.156 158.984 255.664 L 158.984 251.172 166.309 251.173 L 173.633 251.174 173.503 248.438 L 173.373 245.703 162.859 245.703 L 152.344 245.703 152.344 263.281 M192.562 248.279 C 191.926 249.695,191.406 250.917,191.406 250.995 C 191.406 251.072,189.376 255.726,186.895 261.337 C 181.954 272.513,178.906 279.802,178.906 280.445 C 178.906 280.706,180.205 280.859,182.422 280.859 C 184.975 280.859,185.937 280.726,185.935 280.371 C 185.934 280.103,186.484 277.993,187.158 275.684 L 188.382 271.484 195.944 271.484 L 203.505 271.484 204.120 272.949 C 204.698 274.329,205.558 277.380,206.047 279.785 C 206.261 280.843,206.309 280.859,209.089 280.820 C 214.426 280.747,214.843 282.622,203.711 256.664 L 199.023 245.733 196.370 245.718 L 193.717 245.703 192.562 248.279 M211.111 248.131 C 211.478 251.372,211.089 251.172,217.015 251.172 L 222.266 251.172 222.266 265.402 C 222.266 281.881,222.018 280.859,226.004 280.859 L 228.516 280.859 228.516 266.016 L 228.516 251.172 233.984 251.172 L 239.453 251.172 239.453 248.438 L 239.453 245.703 225.145 245.703 L 210.837 245.703 211.111 248.131 M245.313 262.500 C 245.313 282.168,245.052 280.985,249.335 280.780 L 251.758 280.664 251.866 264.063 C 251.999 243.825,252.350 245.703,248.430 245.703 L 245.313 245.703 245.313 262.500 M257.624 246.387 C 257.781 246.763,259.968 252.520,262.484 259.180 C 270.574 280.593,270.791 280.989,274.342 280.780 L 276.322 280.664 278.810 275.000 C 280.178 271.885,283.320 264.244,285.791 258.021 C 290.915 245.121,290.882 245.703,286.479 245.703 L 284.045 245.703 283.579 247.168 C 281.464 253.818,273.828 272.496,273.828 271.018 C 273.828 270.676,272.532 266.818,270.947 262.444 C 264.675 245.130,265.033 245.703,260.470 245.703 C 257.639 245.703,257.366 245.769,257.624 246.387 M295.313 263.281 L 295.313 280.859 306.175 280.859 C 318.800 280.859,318.315 280.993,318.639 277.425 L 318.859 275.000 310.406 275.000 L 301.953 275.000 301.953 270.117 L 301.953 265.234 308.398 265.234 L 314.844 265.234 314.844 263.313 C 314.844 260.007,315.159 260.156,308.161 260.156 L 301.953 260.156 301.953 255.664 L 301.953 251.172 309.375 251.172 L 316.797 251.172 316.797 248.438 L 316.797 245.703 306.055 245.703 L 295.313 245.703 295.313 263.281 M135.694 251.862 C 138.514 253.489,139.113 257.943,136.819 260.237 C 135.475 261.580,133.580 262.067,129.590 262.092 L 126.953 262.109 126.953 256.386 L 126.953 250.663 130.713 250.910 C 133.251 251.077,134.870 251.386,135.694 251.862 M197.770 258.034 C 198.520 259.983,199.592 262.482,200.153 263.588 C 200.713 264.694,201.172 265.693,201.172 265.807 C 201.172 265.922,198.865 266.016,196.046 266.016 C 191.998 266.016,191.002 265.913,191.309 265.527 C 191.749 264.975,195.473 256.539,195.892 255.146 C 196.241 253.987,196.168 253.875,197.770 258.034 M249.819 291.046 C 231.058 293.886,228.300 321.275,246.303 325.964 C 251.356 327.280,258.152 326.427,262.402 323.943 L 264.063 322.973 264.063 315.002 L 264.063 307.031 258.789 307.031 L 253.516 307.031 253.516 309.570 L 253.516 312.109 256.055 312.109 L 258.594 312.109 258.594 315.805 L 258.594 319.501 256.570 320.102 C 247.725 322.729,241.211 318.344,241.211 309.766 C 241.211 297.504,250.012 293.204,262.184 299.519 C 262.627 299.749,263.577 297.578,263.860 295.690 C 264.120 293.957,264.101 293.915,262.629 293.093 C 259.373 291.275,253.992 290.415,249.819 291.046 M111.328 308.789 L 111.328 326.172 121.800 326.172 C 134.051 326.172,133.646 326.288,133.905 322.709 L 134.078 320.313 125.828 320.313 L 117.578 320.313 117.578 315.430 L 117.578 310.547 124.023 310.547 L 130.469 310.547 130.469 309.010 C 130.469 308.164,130.297 307.022,130.088 306.471 L 129.707 305.469 123.642 305.469 L 117.578 305.469 117.578 301.172 L 117.578 296.875 124.805 296.875 L 132.031 296.875 132.031 294.141 L 132.031 291.406 121.680 291.406 L 111.328 291.406 111.328 308.789 M139.844 308.320 C 139.844 327.471,139.597 326.172,143.237 326.172 L 145.692 326.172 145.795 314.214 L 145.898 302.255 147.235 304.116 C 151.004 309.366,163.459 324.894,164.375 325.486 C 164.999 325.890,166.187 326.169,167.285 326.170 L 169.141 326.172 169.141 308.789 L 169.141 291.406 166.217 291.406 L 163.293 291.406 163.189 302.921 L 163.086 314.437 160.660 311.134 C 159.326 309.317,155.294 304.135,151.700 299.618 L 145.167 291.406 142.505 291.406 L 139.844 291.406 139.844 308.320 M177.336 291.497 C 177.332 291.555,177.304 299.336,177.274 308.789 L 177.219 325.977 187.550 326.080 C 199.706 326.203,199.384 326.292,199.402 322.794 L 199.414 320.508 191.399 320.313 L 183.384 320.117 183.257 315.527 L 183.131 310.938 189.417 310.938 L 195.703 310.938 195.703 308.672 C 195.703 305.484,195.671 305.469,189.082 305.469 L 183.398 305.469 183.457 301.270 L 183.515 297.070 190.488 296.964 L 197.461 296.858 197.449 294.230 L 197.438 291.602 187.391 291.497 C 181.865 291.440,177.340 291.440,177.336 291.497 M205.164 308.199 C 205.290 327.648,204.992 326.296,209.110 326.090 L 211.385 325.977 211.454 319.336 L 211.523 312.695 214.313 312.581 L 217.102 312.468 217.578 314.535 C 219.472 322.759,224.804 327.561,230.020 325.743 C 231.589 325.196,231.572 325.079,229.651 323.224 C 226.552 320.230,222.165 311.800,223.492 311.387 C 227.274 310.208,229.849 301.605,227.781 297.054 C 225.905 292.923,222.552 291.695,212.586 291.489 L 205.054 291.334 205.164 308.199 M266.797 291.576 C 266.797 291.717,269.661 296.720,277.994 311.133 C 278.832 312.583,278.897 313.135,278.902 318.826 C 278.907 326.031,278.984 326.172,282.899 326.172 L 285.156 326.172 285.156 319.313 L 285.156 312.454 289.395 305.153 C 298.032 290.278,297.757 291.284,293.139 291.485 L 290.457 291.602 288.735 294.727 C 283.696 303.875,282.327 306.250,282.093 306.246 C 281.952 306.244,280.254 303.324,278.320 299.757 C 274.009 291.804,273.598 291.406,269.697 291.406 C 268.102 291.406,266.797 291.483,266.797 291.576 M219.821 297.395 C 221.692 298.382,222.439 299.771,222.404 302.194 C 222.348 306.098,220.700 307.281,215.027 307.489 L 211.523 307.617 211.415 302.004 L 211.306 296.390 214.930 296.559 C 217.313 296.670,218.988 296.957,219.821 297.395 " stroke="none" fill="#000000" fill-rule="evenodd"></path></g></svg>